<mxfile host="app.diagrams.net" modified="2022-12-21T16:51:24.334Z" agent="5.0 (Windows NT 10.0; Win64; x64) AppleWebKit/537.36 (KHTML, like Gecko) Chrome/108.0.0.0 Safari/537.36" version="20.7.4" etag="iPsy56NupHS00eE2sjlW" type="github">
  <diagram id="VPE0D2DBzhA16aoamQ2t" name="Страница 1">
    <mxGraphModel dx="1194" dy="762" grid="1" gridSize="10" guides="1" tooltips="1" connect="1" arrows="1" fold="1" page="1" pageScale="1" pageWidth="827" pageHeight="1169" math="0" shadow="0">
      <root>
        <mxCell id="0" />
        <mxCell id="1" parent="0" />
        <mxCell id="M2ab2wyLr7fPMs4zQU8q-1" value="Planet" style="swimlane;fontStyle=0;childLayout=stackLayout;horizontal=1;startSize=30;horizontalStack=0;resizeParent=1;resizeParentMax=0;resizeLast=0;collapsible=1;marginBottom=0;whiteSpace=wrap;html=1;" vertex="1" parent="1">
          <mxGeometry x="360" y="280" width="120" height="60" as="geometry" />
        </mxCell>
        <mxCell id="M2ab2wyLr7fPMs4zQU8q-2" value="getInformation()" style="text;strokeColor=none;fillColor=none;align=left;verticalAlign=middle;spacingLeft=4;spacingRight=4;overflow=hidden;points=[[0,0.5],[1,0.5]];portConstraint=eastwest;rotatable=0;whiteSpace=wrap;html=1;" vertex="1" parent="M2ab2wyLr7fPMs4zQU8q-1">
          <mxGeometry y="30" width="120" height="30" as="geometry" />
        </mxCell>
        <mxCell id="M2ab2wyLr7fPMs4zQU8q-5" value="Machine" style="swimlane;fontStyle=0;childLayout=stackLayout;horizontal=1;startSize=30;horizontalStack=0;resizeParent=1;resizeParentMax=0;resizeLast=0;collapsible=1;marginBottom=0;whiteSpace=wrap;html=1;" vertex="1" parent="1">
          <mxGeometry x="344" y="80" width="140" height="60" as="geometry" />
        </mxCell>
        <mxCell id="M2ab2wyLr7fPMs4zQU8q-6" value="killAllHuman()" style="text;strokeColor=none;fillColor=none;align=left;verticalAlign=middle;spacingLeft=4;spacingRight=4;overflow=hidden;points=[[0,0.5],[1,0.5]];portConstraint=eastwest;rotatable=0;whiteSpace=wrap;html=1;" vertex="1" parent="M2ab2wyLr7fPMs4zQU8q-5">
          <mxGeometry y="30" width="140" height="30" as="geometry" />
        </mxCell>
        <mxCell id="M2ab2wyLr7fPMs4zQU8q-14" style="edgeStyle=orthogonalEdgeStyle;rounded=0;orthogonalLoop=1;jettySize=auto;html=1;exitX=0.5;exitY=0;exitDx=0;exitDy=0;entryX=0.536;entryY=1;entryDx=0;entryDy=0;entryPerimeter=0;" edge="1" parent="1" source="M2ab2wyLr7fPMs4zQU8q-9" target="M2ab2wyLr7fPMs4zQU8q-6">
          <mxGeometry relative="1" as="geometry" />
        </mxCell>
        <mxCell id="M2ab2wyLr7fPMs4zQU8q-9" value="Bender" style="swimlane;fontStyle=0;childLayout=stackLayout;horizontal=1;startSize=30;horizontalStack=0;resizeParent=1;resizeParentMax=0;resizeLast=0;collapsible=1;marginBottom=0;whiteSpace=wrap;html=1;" vertex="1" parent="1">
          <mxGeometry x="100" y="200" width="140" height="60" as="geometry" />
        </mxCell>
        <mxCell id="M2ab2wyLr7fPMs4zQU8q-10" value="killAllHuman()" style="text;strokeColor=none;fillColor=none;align=left;verticalAlign=middle;spacingLeft=4;spacingRight=4;overflow=hidden;points=[[0,0.5],[1,0.5]];portConstraint=eastwest;rotatable=0;whiteSpace=wrap;html=1;" vertex="1" parent="M2ab2wyLr7fPMs4zQU8q-9">
          <mxGeometry y="30" width="140" height="30" as="geometry" />
        </mxCell>
        <mxCell id="M2ab2wyLr7fPMs4zQU8q-13" style="edgeStyle=orthogonalEdgeStyle;rounded=0;orthogonalLoop=1;jettySize=auto;html=1;exitX=0.5;exitY=0;exitDx=0;exitDy=0;entryX=0.536;entryY=1.033;entryDx=0;entryDy=0;entryPerimeter=0;" edge="1" parent="1" source="M2ab2wyLr7fPMs4zQU8q-11" target="M2ab2wyLr7fPMs4zQU8q-6">
          <mxGeometry relative="1" as="geometry" />
        </mxCell>
        <mxCell id="M2ab2wyLr7fPMs4zQU8q-11" value="CoffeMachine" style="swimlane;fontStyle=0;childLayout=stackLayout;horizontal=1;startSize=30;horizontalStack=0;resizeParent=1;resizeParentMax=0;resizeLast=0;collapsible=1;marginBottom=0;whiteSpace=wrap;html=1;" vertex="1" parent="1">
          <mxGeometry x="600" y="200" width="140" height="60" as="geometry" />
        </mxCell>
        <mxCell id="M2ab2wyLr7fPMs4zQU8q-12" value="killAllHuman()" style="text;strokeColor=none;fillColor=none;align=left;verticalAlign=middle;spacingLeft=4;spacingRight=4;overflow=hidden;points=[[0,0.5],[1,0.5]];portConstraint=eastwest;rotatable=0;whiteSpace=wrap;html=1;" vertex="1" parent="M2ab2wyLr7fPMs4zQU8q-11">
          <mxGeometry y="30" width="140" height="30" as="geometry" />
        </mxCell>
        <mxCell id="M2ab2wyLr7fPMs4zQU8q-24" style="edgeStyle=orthogonalEdgeStyle;rounded=0;orthogonalLoop=1;jettySize=auto;html=1;exitX=0.5;exitY=0;exitDx=0;exitDy=0;entryX=0.5;entryY=1;entryDx=0;entryDy=0;entryPerimeter=0;" edge="1" parent="1" source="M2ab2wyLr7fPMs4zQU8q-15" target="M2ab2wyLr7fPMs4zQU8q-2">
          <mxGeometry relative="1" as="geometry" />
        </mxCell>
        <mxCell id="M2ab2wyLr7fPMs4zQU8q-15" value="Earth" style="swimlane;fontStyle=0;childLayout=stackLayout;horizontal=1;startSize=30;horizontalStack=0;resizeParent=1;resizeParentMax=0;resizeLast=0;collapsible=1;marginBottom=0;whiteSpace=wrap;html=1;" vertex="1" parent="1">
          <mxGeometry x="224" y="400" width="120" height="60" as="geometry" />
        </mxCell>
        <mxCell id="M2ab2wyLr7fPMs4zQU8q-16" value="getInformation()" style="text;strokeColor=none;fillColor=none;align=left;verticalAlign=middle;spacingLeft=4;spacingRight=4;overflow=hidden;points=[[0,0.5],[1,0.5]];portConstraint=eastwest;rotatable=0;whiteSpace=wrap;html=1;" vertex="1" parent="M2ab2wyLr7fPMs4zQU8q-15">
          <mxGeometry y="30" width="120" height="30" as="geometry" />
        </mxCell>
        <mxCell id="M2ab2wyLr7fPMs4zQU8q-23" style="edgeStyle=orthogonalEdgeStyle;rounded=0;orthogonalLoop=1;jettySize=auto;html=1;exitX=0.5;exitY=0;exitDx=0;exitDy=0;entryX=0.492;entryY=1;entryDx=0;entryDy=0;entryPerimeter=0;" edge="1" parent="1" source="M2ab2wyLr7fPMs4zQU8q-17" target="M2ab2wyLr7fPMs4zQU8q-2">
          <mxGeometry relative="1" as="geometry" />
        </mxCell>
        <mxCell id="M2ab2wyLr7fPMs4zQU8q-17" value="Mars" style="swimlane;fontStyle=0;childLayout=stackLayout;horizontal=1;startSize=30;horizontalStack=0;resizeParent=1;resizeParentMax=0;resizeLast=0;collapsible=1;marginBottom=0;whiteSpace=wrap;html=1;" vertex="1" parent="1">
          <mxGeometry x="484" y="400" width="120" height="60" as="geometry" />
        </mxCell>
        <mxCell id="M2ab2wyLr7fPMs4zQU8q-18" value="getInformation()" style="text;strokeColor=none;fillColor=none;align=left;verticalAlign=middle;spacingLeft=4;spacingRight=4;overflow=hidden;points=[[0,0.5],[1,0.5]];portConstraint=eastwest;rotatable=0;whiteSpace=wrap;html=1;" vertex="1" parent="M2ab2wyLr7fPMs4zQU8q-17">
          <mxGeometry y="30" width="120" height="30" as="geometry" />
        </mxCell>
        <mxCell id="M2ab2wyLr7fPMs4zQU8q-19" value="App" style="swimlane;fontStyle=0;childLayout=stackLayout;horizontal=1;startSize=30;horizontalStack=0;resizeParent=1;resizeParentMax=0;resizeLast=0;collapsible=1;marginBottom=0;whiteSpace=wrap;html=1;" vertex="1" parent="1">
          <mxGeometry x="344" y="560" width="140" height="60" as="geometry" />
        </mxCell>
        <mxCell id="M2ab2wyLr7fPMs4zQU8q-20" value="main(String[])" style="text;strokeColor=none;fillColor=none;align=left;verticalAlign=middle;spacingLeft=4;spacingRight=4;overflow=hidden;points=[[0,0.5],[1,0.5]];portConstraint=eastwest;rotatable=0;whiteSpace=wrap;html=1;" vertex="1" parent="M2ab2wyLr7fPMs4zQU8q-19">
          <mxGeometry y="30" width="140" height="30" as="geometry" />
        </mxCell>
        <mxCell id="M2ab2wyLr7fPMs4zQU8q-25" value="" style="endArrow=none;dashed=1;html=1;rounded=0;exitX=0.5;exitY=0;exitDx=0;exitDy=0;entryX=0.5;entryY=1;entryDx=0;entryDy=0;entryPerimeter=0;" edge="1" parent="1" source="M2ab2wyLr7fPMs4zQU8q-19" target="M2ab2wyLr7fPMs4zQU8q-18">
          <mxGeometry width="50" height="50" relative="1" as="geometry">
            <mxPoint x="390" y="420" as="sourcePoint" />
            <mxPoint x="440" y="370" as="targetPoint" />
            <Array as="points">
              <mxPoint x="414" y="480" />
              <mxPoint x="544" y="480" />
            </Array>
          </mxGeometry>
        </mxCell>
        <mxCell id="M2ab2wyLr7fPMs4zQU8q-26" value="" style="endArrow=none;dashed=1;html=1;rounded=0;exitX=0.5;exitY=0;exitDx=0;exitDy=0;entryX=0.5;entryY=1;entryDx=0;entryDy=0;entryPerimeter=0;" edge="1" parent="1" source="M2ab2wyLr7fPMs4zQU8q-19" target="M2ab2wyLr7fPMs4zQU8q-16">
          <mxGeometry width="50" height="50" relative="1" as="geometry">
            <mxPoint x="424" y="570" as="sourcePoint" />
            <mxPoint x="554" y="470" as="targetPoint" />
            <Array as="points">
              <mxPoint x="414" y="480" />
              <mxPoint x="284" y="480" />
            </Array>
          </mxGeometry>
        </mxCell>
        <mxCell id="M2ab2wyLr7fPMs4zQU8q-27" value="" style="endArrow=none;dashed=1;html=1;rounded=0;exitX=0.5;exitY=0;exitDx=0;exitDy=0;entryX=0.5;entryY=1.067;entryDx=0;entryDy=0;entryPerimeter=0;" edge="1" parent="1" source="M2ab2wyLr7fPMs4zQU8q-19" target="M2ab2wyLr7fPMs4zQU8q-12">
          <mxGeometry width="50" height="50" relative="1" as="geometry">
            <mxPoint x="424" y="570" as="sourcePoint" />
            <mxPoint x="554" y="470" as="targetPoint" />
            <Array as="points">
              <mxPoint x="414" y="480" />
              <mxPoint x="670" y="480" />
            </Array>
          </mxGeometry>
        </mxCell>
        <mxCell id="M2ab2wyLr7fPMs4zQU8q-28" value="" style="endArrow=none;dashed=1;html=1;rounded=0;entryX=0.5;entryY=1.167;entryDx=0;entryDy=0;entryPerimeter=0;exitX=0.5;exitY=0;exitDx=0;exitDy=0;" edge="1" parent="1" source="M2ab2wyLr7fPMs4zQU8q-19" target="M2ab2wyLr7fPMs4zQU8q-10">
          <mxGeometry width="50" height="50" relative="1" as="geometry">
            <mxPoint x="410" y="560" as="sourcePoint" />
            <mxPoint x="680" y="272.01" as="targetPoint" />
            <Array as="points">
              <mxPoint x="414" y="480" />
              <mxPoint x="170" y="480" />
            </Array>
          </mxGeometry>
        </mxCell>
        <mxCell id="M2ab2wyLr7fPMs4zQU8q-29" value="" style="endArrow=classic;startArrow=classic;html=1;rounded=0;entryX=0.421;entryY=1.133;entryDx=0;entryDy=0;entryPerimeter=0;exitX=0.35;exitY=0;exitDx=0;exitDy=0;exitPerimeter=0;" edge="1" parent="1" source="M2ab2wyLr7fPMs4zQU8q-1" target="M2ab2wyLr7fPMs4zQU8q-6">
          <mxGeometry width="50" height="50" relative="1" as="geometry">
            <mxPoint x="390" y="420" as="sourcePoint" />
            <mxPoint x="440" y="370" as="targetPoint" />
          </mxGeometry>
        </mxCell>
        <mxCell id="M2ab2wyLr7fPMs4zQU8q-30" value="Bridge" style="edgeLabel;html=1;align=center;verticalAlign=middle;resizable=0;points=[];" vertex="1" connectable="0" parent="M2ab2wyLr7fPMs4zQU8q-29">
          <mxGeometry x="-0.1908" y="-5" relative="1" as="geometry">
            <mxPoint as="offset" />
          </mxGeometry>
        </mxCell>
      </root>
    </mxGraphModel>
  </diagram>
</mxfile>
